<?xml version="1.0" encoding="UTF-8"?>
<svg id="Your_Photo" data-name="Your Photo" xmlns="http://www.w3.org/2000/svg" xmlns:xlink="http://www.w3.org/1999/xlink" viewBox="0 0 163.84 116.24">
  <defs>
    <style>
      .cls-1 {
        fill: url(#Degradado_sin_nombre_150);
      }

      .cls-1, .cls-2, .cls-3 {
        stroke-width: 0px;
      }

      .cls-2 {
        fill: url(#Degradado_sin_nombre_144);
      }

      .cls-3 {
        fill: url(#Degradado_sin_nombre_154);
      }
    </style>
    <linearGradient id="Degradado_sin_nombre_144" data-name="Degradado sin nombre 144" x1="83.13" y1="124.56" x2="84.83" y2="-8.55" gradientUnits="userSpaceOnUse">
      <stop offset="0" stop-color="#392568"/>
      <stop offset=".48" stop-color="#814d99"/>
      <stop offset="1" stop-color="#61388d"/>
    </linearGradient>
    <linearGradient id="Degradado_sin_nombre_150" data-name="Degradado sin nombre 150" x1="22.25" y1="123.78" x2="23.96" y2="-9.33" gradientUnits="userSpaceOnUse">
      <stop offset="0" stop-color="#3a2668"/>
      <stop offset=".48" stop-color="#814d99"/>
      <stop offset="1" stop-color="#61388d"/>
    </linearGradient>
    <linearGradient id="Degradado_sin_nombre_154" data-name="Degradado sin nombre 154" x1="139.88" y1="125.28" x2="141.59" y2="-7.82" gradientUnits="userSpaceOnUse">
      <stop offset="0" stop-color="#3a2668"/>
      <stop offset=".48" stop-color="#814d99"/>
      <stop offset="1" stop-color="#61388d"/>
    </linearGradient>
  </defs>
  <path class="cls-2" d="M100.02.28c-5.69-1.37-11.64,2.38-13.22,8.27-6.94,25.93-14.27,51.76-21.47,77.62-1.5,5.39-3.07,10.76-4.5,16.16-1.87,7.12,2.74,13.9,9.37,13.9,5.4,0,9.36-2.96,10.82-8.2,4.19-15,8.36-30.01,12.53-45.02,4.52-16.25,9.05-32.5,13.55-48.75,1.64-5.93-1.65-12.68-7.09-13.99Z"/>
  <path class="cls-1" d="M42.63,43.79c4.25-4.34,4.28-10.39.24-14.64-4.2-4.43-10.26-4.8-14.79-.57-8.33,7.78-16.56,15.67-24.71,23.63-2.96,2.89-4.15,6.57-2.85,10.66.45,1.42,1.28,2.89,2.33,3.92,8.11,7.88,16.33,15.66,24.51,23.47,2.55,2.44,5.47,3.97,9.09,3.39,4.39-.7,7.44-3.24,8.82-7.42,1.37-4.15.2-7.81-2.89-10.87-5.15-5.11-10.29-10.22-15.77-15.66,5.5-5.46,10.82-10.62,16.01-15.92Z"/>
  <path class="cls-3" d="M135.38,27.23c-2.22-2.09-5.03-3.04-8.12-2.51-4.37.75-7.42,3.31-8.79,7.49-1.35,4.15-.12,7.79,2.97,10.85,5.15,5.1,10.27,10.24,15.65,15.6-5.36,5.35-10.47,10.49-15.62,15.58-2.4,2.38-3.76,5.16-3.44,8.57.41,4.35,2.78,7.37,6.73,9.07,3.97,1.7,7.7.93,10.79-1.94,6.51-6.06,12.9-12.25,19.32-18.4,2-1.91,4.08-3.74,5.94-5.78,3.71-4.07,4.11-10.25.62-13.67-8.58-8.39-17.31-16.64-26.05-24.86Z"/>
</svg>